<svg xmlns="http://www.w3.org/2000/svg" version="1.1" xmlns:xlink="http://www.w3.org/1999/xlink" xmlns:svgjs="http://svgjs.dev/svgjs" width="1439" height="561" preserveAspectRatio="none" viewBox="0 0 1439 561"><g mask="url(&quot;#SvgjsMask1067&quot;)" fill="none"><path d="M1114.815,137.417C1140.894,136.941,1161.995,118.619,1174.908,95.957C1187.674,73.553,1191.789,46.586,1179.482,23.927C1166.639,0.282,1141.716,-14.086,1114.815,-14.683C1086.813,-15.304,1058.794,-3.423,1044.979,20.942C1031.322,45.028,1036.558,74.476,1050.796,98.223C1064.587,121.223,1088.001,137.907,1114.815,137.417" fill="rgba(28, 142, 92, 0.4)" class="triangle-float1"></path><path d="M807.8402430373251 517.3381101112408L844.2124868040912 585.744351567426 928.635727104986 496.98286518918417z" fill="rgba(28, 142, 92, 0.4)" class="triangle-float1"></path><path d="M331.5370816304613 17.074585098039332L288.19825715698846 158.8294926091224 429.9531646680715 202.16831708259522 473.2919891415444 60.41340957151213z" fill="rgba(28, 142, 92, 0.4)" class="triangle-float2"></path><path d="M1374.7516767409668 250.22737570322113L1228.8850175167986 303.16112254739085 1331.2589152476035 392.15339414333425z" fill="rgba(28, 142, 92, 0.4)" class="triangle-float3"></path><path d="M552.075,212.313C570.83,212.408,585.105,197.012,593.724,180.355C601.59,165.154,601.313,147.627,593.402,132.449C584.771,115.891,570.737,101.064,552.075,100.455C532.547,99.817,514.738,112.218,505.794,129.589C497.513,145.671,502.318,164.151,511.15,179.937C520.252,196.207,533.432,212.219,552.075,212.313" fill="rgba(28, 142, 92, 0.4)" class="triangle-float2"></path><path d="M630.595,725.764C681.646,724.972,732.043,701.928,755.697,656.681C777.993,614.031,762.209,563.986,736.405,523.363C712.753,486.129,674.673,461.441,630.595,459.736C583.164,457.901,535.65,474.919,509.587,514.589C480.849,558.331,472.561,615.26,498.582,660.671C524.726,706.296,578.016,726.58,630.595,725.764" fill="rgba(28, 142, 92, 0.4)" class="triangle-float1"></path><path d="M1130.5765262205541 142.0216216394156L1191.0412432314329 189.26183595081142 1231.6692061930871 74.94465327879533z" fill="rgba(28, 142, 92, 0.4)" class="triangle-float3"></path><path d="M1424.29519546212 333.0156731557299L1303.5555505259154 335.1231914975013 1305.6630688676867 455.8628364337061 1426.4027138038914 453.7553180919347z" fill="rgba(28, 142, 92, 0.4)" class="triangle-float2"></path><path d="M768.4549126539966 256.40401109238877L722.9226573460131 332.1824093866111 859.3563824413384 362.5915932014751z" fill="rgba(28, 142, 92, 0.4)" class="triangle-float2"></path><path d="M311.119,585.174C368.461,588.641,430.482,575.751,461.071,527.125C493.26,475.956,487.611,408.304,453.986,358.067C423.566,312.618,365.745,300.452,311.119,303.09C261.699,305.477,215.302,328.099,190.308,370.8C165.057,413.941,165.053,467.165,189.595,510.713C214.594,555.072,260.294,582.101,311.119,585.174" fill="rgba(28, 142, 92, 0.4)" class="triangle-float3"></path></g><defs><mask id="SvgjsMask1067"><rect width="1439" height="561" fill="#ffffff"></rect></mask><style>
                @keyframes float1 {
                    0%{transform: translate(0, 0)}
                    50%{transform: translate(-10px, 0)}
                    100%{transform: translate(0, 0)}
                }

                .triangle-float1 {
                    animation: float1 5s infinite;
                }

                @keyframes float2 {
                    0%{transform: translate(0, 0)}
                    50%{transform: translate(-5px, -5px)}
                    100%{transform: translate(0, 0)}
                }

                .triangle-float2 {
                    animation: float2 4s infinite;
                }

                @keyframes float3 {
                    0%{transform: translate(0, 0)}
                    50%{transform: translate(0, -10px)}
                    100%{transform: translate(0, 0)}
                }

                .triangle-float3 {
                    animation: float3 6s infinite;
                }
            </style></defs></svg>