<svg xmlns="http://www.w3.org/2000/svg" version="1.1" xmlns:xlink="http://www.w3.org/1999/xlink" xmlns:svgjs="http://svgjs.dev/svgjs" width="1250" height="800" preserveAspectRatio="none" viewBox="0 0 1250 800"><g mask="url(&quot;#SvgjsMask1680&quot;)" fill="none"><path d="M432.19,693.732C478.516,695.305,526.546,683.682,552.566,645.321C581.81,602.207,589.02,545.425,563.65,499.924C537.697,453.377,485.349,425.652,432.19,429.429C384.208,432.838,351.531,473.776,329.541,516.558C309.759,555.044,303.497,600.157,325.19,637.599C346.831,674.952,389.046,692.267,432.19,693.732" fill="rgba(111, 249, 111, 0.67)" class="triangle-float3"></path><path d="M218.51170419835242 708.8292618489772L303.92958694588583 507.59734069454464 102.6976657914532 422.1794579470112 17.279783043919792 623.4113791014438z" fill="rgba(111, 249, 111, 0.67)" class="triangle-float2"></path><path d="M1014.092364806304-1.7511842758555431L847.6855218569817 52.31767658631519 901.7543827191525 218.72451953563743 1068.1612256684748 164.6556586734667z" fill="rgba(111, 249, 111, 0.67)" class="triangle-float2"></path><path d="M347.946,168.624C387.323,169.074,422.222,144.174,441.016,109.568C458.974,76.502,455.543,37.158,437.177,4.317C418.312,-29.416,386.538,-58.962,347.946,-56.85C311.644,-54.863,291.552,-18.692,274.169,13.239C257.849,43.219,243.846,76.649,258.486,107.484C275.09,142.454,309.237,168.182,347.946,168.624" fill="rgba(111, 249, 111, 0.67)" class="triangle-float1"></path><path d="M0.1168321142506592 483.12345311445335L133.0965416350084 434.7227970875315 84.69588560808656 301.74308756677374-48.283823912671195 350.1437435936956z" fill="rgba(111, 249, 111, 0.67)" class="triangle-float3"></path><path d="M578.5568705641169 838.2215027164564L768.5620469269463 821.5982037734649 751.938747983955 631.5930274106355 561.9335716211255 648.216326353627z" fill="rgba(111, 249, 111, 0.67)" class="triangle-float2"></path><path d="M869.994,311.66C897.861,312.187,925.82,299.764,938.953,275.18C951.497,251.698,943.334,223.728,928.925,201.342C915.837,181.008,894.169,168.608,869.994,168.045C844.719,167.456,819.39,176.97,806.108,198.482C792.187,221.031,792.383,249.577,805.409,272.654C818.66,296.128,843.043,311.15,869.994,311.66" fill="rgba(111, 249, 111, 0.67)" class="triangle-float2"></path><path d="M195.28097147767045 693.6127192971302L139.82495488899818 470.2842926920457-7.2890244366772095 607.4702977949821z" fill="rgba(111, 249, 111, 0.67)" class="triangle-float3"></path></g><defs><mask id="SvgjsMask1680"><rect width="1250" height="800" fill="#ffffff"></rect></mask><style>
                @keyframes float1 {
                    0%{transform: translate(0, 0)}
                    50%{transform: translate(-10px, 0)}
                    100%{transform: translate(0, 0)}
                }

                .triangle-float1 {
                    animation: float1 5s infinite;
                }

                @keyframes float2 {
                    0%{transform: translate(0, 0)}
                    50%{transform: translate(-5px, -5px)}
                    100%{transform: translate(0, 0)}
                }

                .triangle-float2 {
                    animation: float2 4s infinite;
                }

                @keyframes float3 {
                    0%{transform: translate(0, 0)}
                    50%{transform: translate(0, -10px)}
                    100%{transform: translate(0, 0)}
                }

                .triangle-float3 {
                    animation: float3 6s infinite;
                }
            </style></defs></svg>