<svg xmlns="http://www.w3.org/2000/svg" version="1.1" xmlns:xlink="http://www.w3.org/1999/xlink" xmlns:svgjs="http://svgjs.dev/svgjs" width="1250" height="800" preserveAspectRatio="none" viewBox="0 0 1250 800"><g mask="url(&quot;#SvgjsMask1528&quot;)" fill="none"><path d="M1316.722,607.485C1390.941,608.059,1465.304,578.374,1502.248,514.001C1539.049,449.876,1524.578,372.238,1488.891,307.486C1451.677,239.964,1393.768,180.21,1316.722,177.378C1235.429,174.39,1159.858,222.425,1121.143,293.97C1084.125,362.379,1094.931,445.176,1136.1,511.17C1174.807,573.218,1243.593,606.92,1316.722,607.485" fill="rgba(10, 173, 10, 0.67)" class="triangle-float1"></path><path d="M15.593,234.442C55.373,233.946,91.406,211.081,110.482,176.17C128.81,142.628,124.171,102.823,105.84,69.282C86.609,34.094,55.653,0.755,15.593,2.548C-22.648,4.259,-42.895,43.42,-61.67,76.778C-79.916,109.196,-99.858,145.185,-83.488,178.59C-65.607,215.079,-25.039,234.949,15.593,234.442" fill="rgba(10, 173, 10, 0.67)" class="triangle-float2"></path><path d="M938.1,174.862C971.193,172.174,988.97,139.799,1005.765,111.158C1022.864,81.998,1043.687,50.037,1029.209,19.49C1013.225,-14.234,975.42,-31.605,938.1,-31.607C900.777,-31.609,865.638,-12.841,846.974,19.48C828.308,51.805,829.391,91.755,848.274,123.953C866.935,155.772,901.334,177.849,938.1,174.862" fill="rgba(10, 173, 10, 0.67)" class="triangle-float3"></path><path d="M265.784361784246 802.8513573991179L384.29514779675685 597.5846547805262 179.02844517816513 479.07386876801536 60.51765916565432 684.340571386607z" fill="rgba(10, 173, 10, 0.67)" class="triangle-float1"></path><path d="M1007.46,304.504C1029.743,302.775,1044.317,283.686,1055.344,264.246C1066.174,245.155,1074.306,223.285,1064.736,203.532C1054.018,181.409,1032.028,166.222,1007.46,165.407C981.485,164.545,956.309,177.059,943.2,199.5C929.984,222.126,931.034,250.478,944.712,272.828C957.82,294.247,982.423,306.446,1007.46,304.504" fill="rgba(10, 173, 10, 0.67)" class="triangle-float1"></path><path d="M210.58914058035606-66.97834325507361L109.79553117086213 122.5868654991427 299.36073992507846 223.38047490863661 400.1543493345724 33.815266154420314z" fill="rgba(10, 173, 10, 0.67)" class="triangle-float2"></path><path d="M590.1900286552731 254.36672969184184L671.1843442700606 142.88761801871226 559.705232596931 61.893302403924764 478.7109169821435 173.37241407705437z" fill="rgba(10, 173, 10, 0.67)" class="triangle-float1"></path><path d="M396.85225916832536 267.402803457732L163.86053102796583 396.2621088174146 361.24007348504574 519.5985355927297z" fill="rgba(10, 173, 10, 0.67)" class="triangle-float1"></path></g><defs><mask id="SvgjsMask1528"><rect width="1250" height="800" fill="#ffffff"></rect></mask><style>
                @keyframes float1 {
                    0%{transform: translate(0, 0)}
                    50%{transform: translate(-10px, 0)}
                    100%{transform: translate(0, 0)}
                }

                .triangle-float1 {
                    animation: float1 5s infinite;
                }

                @keyframes float2 {
                    0%{transform: translate(0, 0)}
                    50%{transform: translate(-5px, -5px)}
                    100%{transform: translate(0, 0)}
                }

                .triangle-float2 {
                    animation: float2 4s infinite;
                }

                @keyframes float3 {
                    0%{transform: translate(0, 0)}
                    50%{transform: translate(0, -10px)}
                    100%{transform: translate(0, 0)}
                }

                .triangle-float3 {
                    animation: float3 6s infinite;
                }
            </style></defs></svg>