<svg xmlns="http://www.w3.org/2000/svg" version="1.1" xmlns:xlink="http://www.w3.org/1999/xlink" xmlns:svgjs="http://svgjs.dev/svgjs" width="1440" height="560" preserveAspectRatio="none" viewBox="0 0 1440 560"><g mask="url(&quot;#SvgjsMask1001&quot;)" fill="none"><path d="M120.75 339.9 a30.74 30.74 0 1 0 61.48 0 a30.74 30.74 0 1 0 -61.48 0z" stroke="rgba(255, 201, 8, 1)"></path><path d="M166.18 350.71L220.37 350.71L220.37 404.9L166.18 404.9z" stroke="#037b0b"></path><path d="M781.93 509.97L807.69 509.97L807.69 535.73L781.93 535.73z" fill="#d3b714"></path><path d="M81.29 110.13L136.9 110.13L136.9 113.94L81.29 113.94z" fill="#037b0b"></path><path d="M1136.27 73.5 a1.97 1.97 0 1 0 3.94 0 a1.97 1.97 0 1 0 -3.94 0z" stroke="#037b0b"></path><path d="M1369.84 484L1403.18 484L1403.18 517.34L1369.84 517.34z" fill="rgba(242, 48, 48, 1)"></path><path d="M89.42 91.24 a47.06 47.06 0 1 0 94.12 0 a47.06 47.06 0 1 0 -94.12 0z" stroke="#d3b714"></path><path d="M1283.33 184.9L1304.61 184.9L1304.61 224.83L1283.33 224.83z" stroke="rgba(255, 201, 8, 1)"></path><path d="M387.13 364.73L441.28 364.73L441.28 418.88L387.13 418.88z" fill="rgba(242, 48, 48, 1)"></path><path d="M856.93 134.71 a16.51 16.51 0 1 0 33.02 0 a16.51 16.51 0 1 0 -33.02 0z" fill="#d3b714"></path><path d="M519.93 273.3L563.35 273.3L563.35 298.1L519.93 298.1z" fill="#d3b714"></path><path d="M77.42 15.79L80.25 15.79L80.25 18.62L77.42 18.62z" fill="rgba(242, 48, 48, 1)"></path><path d="M17.73 256.13 a41.93 41.93 0 1 0 83.86 0 a41.93 41.93 0 1 0 -83.86 0z" fill="rgba(255, 201, 8, 1)"></path><path d="M447.84 36.81L460.99 36.81L460.99 71.94L447.84 71.94z" stroke="#037b0b"></path><path d="M565.37 435.88L609.59 435.88L609.59 480.1L565.37 480.1z" fill="#037b0b"></path><path d="M353.22 316.52 a49.07 49.07 0 1 0 98.14 0 a49.07 49.07 0 1 0 -98.14 0z" stroke="#037b0b"></path><path d="M466.18 291.32a49.2 49.2 0 1 0-43.03 88.49z" fill="rgba(255, 201, 8, 1)"></path><path d="M1395.29 68.66 a25.03 25.03 0 1 0 50.06 0 a25.03 25.03 0 1 0 -50.06 0z" stroke="rgba(242, 48, 48, 1)"></path><path d="M1025.66 340.2L1070.97 340.2L1070.97 385.51L1025.66 385.51z" stroke="rgba(255, 201, 8, 1)"></path><path d="M535.21 340.5a37.15 37.15 0 1 0-56.19 48.62z" stroke="#d3b714"></path><path d="M136.86 259.25 a6.86 6.86 0 1 0 13.72 0 a6.86 6.86 0 1 0 -13.72 0z" fill="rgba(255, 201, 8, 1)"></path><path d="M1406.97 37.33 a18.04 18.04 0 1 0 36.08 0 a18.04 18.04 0 1 0 -36.08 0z" fill="rgba(242, 48, 48, 1)"></path><path d="M729.66 313.52L766.27 313.52L766.27 325.24L729.66 325.24z" stroke="rgba(242, 48, 48, 1)"></path><path d="M82.8 255.66a11.3 11.3 0 1 0 15.16-16.76z" fill="rgba(255, 201, 8, 1)"></path><path d="M590.09 18.54L611.17 18.54L611.17 39.62L590.09 39.62z" fill="rgba(255, 201, 8, 1)"></path><path d="M93.03 335.13L142.83 335.13L142.83 350.44L93.03 350.44z" stroke="#d3b714"></path><path d="M729 132.88 a17.69 17.69 0 1 0 35.38 0 a17.69 17.69 0 1 0 -35.38 0z" stroke="rgba(255, 201, 8, 1)"></path><path d="M374.81 479.74L384.92 479.74L384.92 499.65L374.81 499.65z" fill="rgba(255, 201, 8, 1)"></path><path d="M224.93 124.11L242.94 124.11L242.94 142.12L224.93 142.12z" fill="rgba(255, 201, 8, 1)"></path><path d="M1217.65 455.91L1224.87 455.91L1224.87 463.13L1217.65 463.13z" fill="#037b0b"></path><path d="M290.55 451.36 a47.41 47.41 0 1 0 94.82 0 a47.41 47.41 0 1 0 -94.82 0z" stroke="#d3b714"></path><path d="M4.16 5.65L7.04 5.65L7.04 36.33L4.16 36.33z" fill="#d3b714"></path><path d="M1360.22 530.49 a15.12 15.12 0 1 0 30.24 0 a15.12 15.12 0 1 0 -30.24 0z" fill="rgba(255, 201, 8, 1)"></path></g><defs><mask id="SvgjsMask1001"><rect width="1440" height="560" fill="#ffffff"></rect></mask></defs></svg>