<svg xmlns="http://www.w3.org/2000/svg" version="1.1" xmlns:xlink="http://www.w3.org/1999/xlink" xmlns:svgjs="http://svgjs.dev/svgjs" width="1440" height="560" preserveAspectRatio="none" viewBox="0 0 1440 560"><g mask="url(&quot;#SvgjsMask1002&quot;)" fill="none"><path d="M513.6 600.17C662.94 598.23 784.58 429.91 1084.83 425.31 1385.08 420.71 1505.1 232.01 1656.06 229.31" stroke="rgba(54, 194, 51, 0.58)" stroke-width="2"></path><path d="M478.71 613.55C661.71 579.13 750.77 118.03 1033.84 116.94 1316.9 115.85 1434.32 383.98 1588.96 391.34" stroke="rgba(54, 194, 51, 0.58)" stroke-width="2"></path><path d="M977.85 666.99C1113.16 624.58 1148.5 240.35 1345.83 235.38 1543.16 230.41 1614.91 378.37 1713.81 380.98" stroke="rgba(54, 194, 51, 0.58)" stroke-width="2"></path><path d="M521.45 652.65C688.42 643.16 792.48 349 1112.47 339.28 1432.47 329.56 1549.11 162.04 1703.5 160.08" stroke="rgba(54, 194, 51, 0.58)" stroke-width="2"></path><path d="M244.17 642.08C421.31 633.91 561.15 330.99 881.54 330.81 1201.93 330.63 1353.4 508.32 1518.91 510.01" stroke="rgba(54, 194, 51, 0.58)" stroke-width="2"></path></g><defs><mask id="SvgjsMask1002"><rect width="1440" height="560" fill="#ffffff"></rect></mask></defs></svg>